<?xml version="1.0" encoding="utf-8"?>
<!-- Generator: Adobe Illustrator 22.1.0, SVG Export Plug-In . SVG Version: 6.00 Build 0)  -->
<svg version="1.1" id="Layer_1" xmlns="http://www.w3.org/2000/svg" xmlns:xlink="http://www.w3.org/1999/xlink" x="0px" y="0px"
	 viewBox="0 0 1000 1000" style="enable-background:new 0 0 1000 1000;" xml:space="preserve">
<style type="text/css">
	.st0{fill:#191A17;}
</style>
<title>Artboard</title>
<desc>Created with Sketch.</desc>
<g id="Artboard">
	<g id="Group-28" transform="translate(164.000000, 83.000000)">
		<path id="Combined-Shape" class="st0" d="M185.2,484.6c21.2,5.9,72.2,8.7,151.4,8.8c78.6-0.1,127.3-2.8,148.5-8.9l0.2,0.9
			c2.8-2.8,6.1-5.1,9.8-6.9c16.6-8.1,36.5-31.6,55.8-66.1C512,425.1,442,430.8,337.4,431c-104.5-0.2-177-5.9-216.8-18.2
			c19.2,34.2,39.1,57.6,55.6,65.6C179.6,480.1,182.5,482.2,185.2,484.6z M191.4,492.2c5.8,9.3,8.4,21.8,8.4,37.3
			c0,45.9,0.8,82.4,2.6,127.9c0.2,6,1.1,27.1,1.2,31.7c0.4,11.6,0.7,20.4,1,28.8c0,1.3,0,1.7,0.1,2c20.5,4.7,64.8,7,131.6,7
			c67.7-0.1,110.5-2.4,130.3-7.4c0-0.3,0-0.8,0.1-1.7c0.2-8.4,0.5-17.2,1-28.8c0.2-4.6,1-25.7,1.2-31.7c1.7-45.5,2.6-82,2.6-127.9
			c0-15.7,2.6-28.3,8.6-37.6c-24.4,5.1-71.4,7.4-143.5,7.5C265.1,499.3,216.6,497.1,191.4,492.2z M116.3,405.1
			c37.1,13.4,111.4,19.7,221,19.9c110-0.3,181.6-6.6,217.8-20.5c8.3-15.6,16.4-33.2,24-52.3c31.8-80.6,52.4-181.9,56.6-295
			c0.1-3.2,1.3-5.7,3.2-7.5c-53.9-7.1-113-12.1-174.3-15c0,11.3-0.2,23.6-0.7,36.6c-1.3,29.4-4.1,58.2-9,85.3
			c-7.7,42.4-19.8,77.9-37.1,104c-20.7,31.2-48.2,48.1-83.2,48.1v-6c0.1,0,0.2,0,0.3,0c0.1,0,0.2,0,0.3,0v6
			c-34.9,0-62.5-16.9-83.2-48.1c-17.3-26.1-29.4-61.5-37.1-104c-4.9-27-7.8-55.9-9-85.3c-0.6-13-0.8-25.2-0.7-36.6
			c-60.8,2.9-119.6,7.8-173.1,14.8c2,1.8,3.3,4.4,3.4,7.7c4.2,113.1,24.7,214.4,56.6,295C99.8,371.6,108,389.4,116.3,405.1z
			 M102.9,405.3c-7.6-14.8-15-31.1-22-48.7C48.7,274.9,27.8,172.5,23.6,58.3c-1.5-0.3-3.5-0.3-8.4-0.1c-1,0-1.6,0.1-2.2,0.1
			c-6.5,0.3-10.5-0.1-14.3-1.7L-5,55.1v-38l5.1-0.8c195.9-29.8,475.1-29.8,671,0l5.1,0.8v38l-3.7,1.6c-3.8,1.6-7.9,1.9-14.3,1.7
			c-0.6,0-1.2,0-2.2-0.1c-4.9-0.2-6.9-0.2-8.4,0.1c-4.3,114.2-25.1,216.5-57.4,298.3c-27.4,69.5-61.6,118.8-90,132.7
			c-11.6,5.7-16.9,18.9-16.9,40.3c0,46.1-0.8,82.7-2.6,128.4c-0.2,6-1.1,27.1-1.2,31.7c-0.4,11.5-0.7,20.3-1,28.6
			c-0.1,5.3-1.1,7.8-4.6,11.2c-2,2-4.3,4.5-7.6,8.2c-0.6,0.7-7.2,8.1-9.2,10.3c-2.4,2.7-4.5,4.9-6.5,7.1
			c-11.9,12.5-20.3,18.8-28.2,18.8h-3.8v30.9h12.9v39l-2.8,0.6c-12.4,2.7-24.9,3.7-37.3,2.9c-4.3-0.3-8.7-0.7-13-1.4
			c-2.8-0.4-5.6-0.9-8.4-1.6l-2.8-0.6v-39h12.9v-30.9h-88.1v30.9h12.9v39l-2.8,0.6c-12.4,2.7-24.9,3.7-37.3,2.9
			c-4.3-0.3-8.7-0.7-13-1.4c-2.8-0.4-5.6-0.9-8.4-1.6l-2.8-0.6v-39H254v-30.9h-5.2c-7.9,0-16.3-6.4-28.2-18.8
			c-2-2.1-4.1-4.4-6.5-7.1c-2-2.3-8.6-9.7-9.2-10.3c-3.3-3.7-5.7-6.2-7.6-8.2c-3.5-3.4-4.5-6-4.6-11.2c-0.2-8.3-0.5-17.1-1-28.6
			c-0.2-4.6-1-25.7-1.2-31.7c-1.7-45.7-2.6-82.3-2.6-128.4c0-21.4-5.3-34.6-16.9-40.3c-21-10.3-45.3-40.1-67.6-83.2
			c-0.2-0.1-0.4-0.2-0.6-0.3L102.9,405.3z M658.8,46.3c2.2,0.1,4,0.1,5.4,0V27.5C603.7,18.5,535.3,12.3,464,9
			c0.1,1.7,0.2,3.6,0.2,5.8c0.1,4.4,0.3,9.1,0.3,13.9C533.5,31.9,599.7,37.8,658.8,46.3z M458,8.7c-80.9-3.6-165.3-3.6-246.2,0.1
			c-0.1,1.8-0.2,3.8-0.2,6.2c-0.1,4.3-0.3,8.8-0.3,13.4c81.2-3.6,166.1-3.6,247.3,0c-0.1-4.7-0.2-9.2-0.3-13.4
			C458.2,12.6,458.1,10.5,458,8.7C458,8.7,458,8.7,458,8.7z M205.8,9C135.1,12.4,67.2,18.5,7,27.5l0,18.9c1,0.1,2.3,0.1,3.7,0.1
			c59.2-8.6,125.5-14.5,194.6-17.7c0.1-4.8,0.2-9.5,0.3-13.9C205.7,12.6,205.7,10.7,205.8,9z M459.7,727.1
			c-22.9,4-63.3,5.8-123.4,5.8c-59.5-0.1-101.1-1.8-124.6-5.6c0.6,0.7,1.3,1.5,2,2.3c0.6,0.7,7.2,8.1,9.2,10.3
			c2.3,2.6,4.4,4.8,6.3,6.8c9.4,9.8,16.3,15.1,19.5,15.1h173.8c3.1,0,10.1-5.3,19.5-15.1c1.9-2,4-4.2,6.3-6.8
			c2-2.2,8.5-9.6,9.2-10.3C458.3,728.7,459,727.9,459.7,727.1z M458.6,34.4c-81.3-3.7-166.1-3.7-247.4,0
			c-0.1,11.3,0.2,23.6,0.7,36.6c1.2,29.2,4.1,57.7,8.9,84.5c7.5,41.7,19.4,76.4,36.2,101.7c19.6,29.5,45.2,45.3,77.9,45.4
			c32.6-0.1,58.3-15.9,77.9-45.4c16.8-25.3,28.6-60,36.2-101.7c4.8-26.7,7.7-55.3,8.9-84.5C458.5,58,458.7,45.7,458.6,34.4z
			 M393.9,811.7v28.7c10.2,0.4,20.5-0.3,30.7-2.3v-26.4h-5.9L393.9,811.7z M377,838.5v-26.8h-2.6v26.4
			C375.3,838.2,376.1,838.4,377,838.5z M397.9,774.2v30.6h13.8v-30.6H397.9z M267.5,840.4c10.2,0.4,20.5-0.3,30.7-2.3v-26.4h-5.9
			l-24.8,0V840.4z M250.6,838.5v-26.8H248v26.4C248.9,838.2,249.7,838.4,250.6,838.5z M271.5,804.7h13.8v-30.6h-13.8V804.7z"/>
	</g>
</g>
</svg>
