<?xml version="1.0" encoding="UTF-8"?>
<svg width="294px" height="1000px" viewBox="0 0 294 1000" version="1.1" xmlns="http://www.w3.org/2000/svg" xmlns:xlink="http://www.w3.org/1999/xlink">
    <!-- Generator: Sketch 52.5 (67469) - http://www.bohemiancoding.com/sketch -->
    <title>Combined Shape</title>
    <desc>Created with Sketch.</desc>
    <g id="Philips-Hue" stroke="none" stroke-width="1" fill="none" fill-rule="evenodd">
        <g id="Expanded" transform="translate(-286.000000, 0.000000)" fill="#000000" fill-rule="nonzero">
            <path d="M447.458354,20.9499878 C434.703721,26.6303591 423.289655,34.8217451 413.470362,45.0738187 C397.188171,62.0736397 387.021589,83.6402884 387.021589,97.7889084 L387.021589,900.010105 L387.00226,900.248531 C386.998951,900.289349 386.98969,900.43761 386.97901,900.687064 C386.83667,904.011792 387.079557,908.565049 388.032569,913.883367 C389.471213,921.911771 392.250154,929.82885 396.672378,937.204382 C400.818122,944.118793 406.265125,950.29543 413.184051,955.569519 C413.396411,955.731536 414.999564,957.048808 415.622807,957.55115 C417.156822,958.787586 418.778824,960.049975 420.591252,961.400449 C425.736796,965.23449 431.360369,968.990155 437.442334,972.502136 C437.492218,972.530941 437.542104,972.559714 437.591993,972.588454 C424.77926,959.444819 417,941.501959 417,921.45364 L417,80.5463605 C417,55.7701385 428.879806,34.2105257 447.458354,20.9499878 Z M504.309866,988.096909 C539.936158,982.26034 568.058593,950.44823 568.058593,914.629105 L568.058593,86.3686878 C568.058593,64.5939816 557.66484,44.2998824 541.510672,30.4224225 C529.462625,20.7741754 514.575892,14.4648004 498.489564,13.2293261 L497.652002,13.1655762 C495.705941,13.0158344 493.738003,12.9398798 491.805617,12.9398798 C453.166464,12.9398798 422.962733,42.619118 422.962733,80.5463605 L422.962733,921.45364 C422.962733,959.379149 453.166929,989.06012 491.803402,989.06012 C493.730189,989.06012 495.701226,988.984599 497.645708,988.836932 L498.489719,988.770831 C500.448544,988.62038 502.38958,988.394695 504.309866,988.096909 Z M375.080182,548.784863 C362.717584,533.695065 356.883973,513.322281 359.694887,492.506992 C361.540419,478.840513 366.926874,466.237384 375.080182,455.894707 L375.080182,376.079225 C334.373947,394.901972 304.723958,435.770422 298.268458,484.433203 C289.921843,547.34561 322.495865,606.249578 375.080182,627.642748 L375.080182,548.784863 Z M375.080182,543.856184 L375.080182,460.942873 C368.592925,470.221279 364.287945,481.146113 362.701084,492.897088 C360.185482,511.525548 364.866175,529.762375 375.080169,543.856166 Z M375.080182,639.976647 C315.47464,618.50587 278.168243,553.451564 287.397368,483.976544 C294.610473,429.67258 328.767332,384.44068 375.080182,365.281134 L375.080182,97.7889084 C375.080182,80.3102302 386.56918,55.9383056 404.82566,36.877179 C427.053519,13.6696364 456.835976,-0.0958951352 491.411737,0.000516081973 C491.559016,8.60552942e-05 491.559016,8.60552942e-05 491.706382,0 C492.536454,0 493.372156,0.0125440278 494.17312,0.0365545051 C495.690376,0.0724197113 497.215332,0.134714263 498.747894,0.223614827 L504.410424,0.552085909 L504.408,0.898671553 C546.601783,6.85923358 580,44.0435866 580,86.3686878 L580,914.629105 C580,958.71948 543.760926,997.23096 499.100186,1000.68125 L498.245334,1000.74857 C496.064796,1000.91514 493.862987,1001 491.704164,1001 C491.584564,1000.99994 491.584564,1000.99994 491.482134,1000.99968 C471.440841,1000.99983 451.153112,994.156596 431.448309,982.778217 C424.937661,979.018695 418.93251,975.008197 413.433213,970.910568 C411.492555,969.464548 409.752479,968.110262 408.106123,966.783278 C407.324812,966.153532 405.928423,965.006153 405.919755,964.999539 C397.776931,958.79251 391.323994,951.475194 386.417186,943.291454 C381.207413,934.602421 377.955356,925.337453 376.276551,915.968826 C375.159497,909.735063 374.870971,904.326248 375.048422,900.181412 C375.058841,899.938062 375.06978,899.732755 375.080182,899.566815 L375.080182,639.976647 Z M375.080182,371.728823 C331.899514,390.597686 300.1034,433.427746 293.285447,484.756801 C284.520724,550.735902 319.336936,612.410638 375.080182,633.648953 L375.080182,630.844628 C320.564372,609.317876 286.745458,548.714989 295.325672,484.041832 C301.979485,433.884137 332.802836,391.804769 375.080182,372.813458 L375.080182,371.728823 Z M429,917.545629 L429,83.4523941 C429,43.8969065 459.834494,14.1113418 497.58235,17.2232921 L498.358767,17.2865663 C535.344458,20.3354991 565,53.9942322 565,92.6549011 L565,908.343122 C565,947.005617 535.344791,980.66467 498.355981,983.713859 L497.583734,983.776792 C459.833385,986.888138 429,957.102443 429,917.545629 Z M497.094336,977.858293 L497.867982,977.795246 C531.703332,975.006013 559.043796,943.974227 559.043796,908.343122 L559.043796,92.6549011 C559.043796,57.0256475 531.703027,25.9941584 497.870768,23.2051789 L497.094336,23.1419035 C462.886418,20.3217885 434.956204,47.3018707 434.956204,83.4523941 L434.956204,917.545629 C434.956204,953.698004 462.886115,980.678433 497.094336,977.858293 Z" id="Combined-Shape"></path>
        </g>
    </g>
</svg>