<?xml version="1.0" encoding="UTF-8"?>
<svg width="1000px" height="1000px" viewBox="0 0 1000 1000" version="1.1" xmlns="http://www.w3.org/2000/svg" xmlns:xlink="http://www.w3.org/1999/xlink">
    <!-- Generator: Sketch 52.5 (67469) - http://www.bohemiancoding.com/sketch -->
    <title>Expanded</title>
    <desc>Created with Sketch.</desc>
    <g id="Expanded" stroke="none" stroke-width="1" fill="none" fill-rule="evenodd">
        <g id="Group" transform="translate(211.000000, 0.000000)" fill="#010101">
            <path d="M513.795819,457.92166 C513.856264,458.330176 513.672559,459.489414 513.352557,460.376308 C511.826031,463.958225 483.996555,529.143182 474.263765,546.347037 C449.287044,590.495193 436.62209,631.610856 436.62209,668.552551 L436.62209,713.666935 C436.62209,714.640269 436.428904,735.94231 421.81431,750.188273 C420.773713,750.955572 419.692818,751.686165 418.589405,752.358736 C402.296581,762.29219 322.086392,765.032208 292.582241,765.251267 L285.446204,765.251267 C255.915979,765.033392 175.706975,762.293374 159.410595,752.358736 C158.305997,751.686165 157.226287,750.953204 156.186875,750.188273 C141.572281,735.94231 141.37791,714.640269 141.37791,713.666935 L141.37791,668.552551 C141.37791,631.610856 128.714141,590.495193 103.737421,546.347037 C94.00463,529.143182 66.175154,463.958225 64.6474425,460.376308 C64.3286261,459.489414 64.1449214,458.330176 64.2053662,457.92166 C64.1141064,458.537394 63.305806,459.633875 62.2438746,459.948847 L61.2092027,456.481788 C95.615305,463.308151 163.060984,471.408611 289.319409,471.408611 C414.768348,471.408611 482.153583,463.411168 516.751686,456.614408 L515.757311,459.948847 C514.695379,459.633875 513.885894,458.537394 513.795819,457.92166 Z M397.55226,799.306115 C396.343365,800.246294 392.381271,802.05679 389.895925,803.198266 C387.075169,804.539857 384.858862,805.546346 383.113075,806.552835 C381.501215,806.754133 379.821799,806.887936 378.076012,807.089234 C373.037764,807.559324 367.531366,808.029413 361.755929,808.432009 C350.539278,809.236016 338.517883,809.773599 326.428933,810.175011 C312.459083,810.646284 298.422863,810.847582 285.460426,810.913892 C272.497989,810.847582 258.395399,810.646284 244.425549,810.175011 C232.336598,809.773599 220.314018,809.236016 209.166109,808.432009 C203.457043,808.029413 198.084571,807.626818 193.248991,807.156728 C190.697274,806.887936 188.211928,806.619145 185.861694,806.351537 C184.786725,805.68015 183.57783,804.941268 182.167452,804.137261 C179.883589,802.728177 176.122977,800.513901 175.048008,799.507412 C173.906669,797.225643 173.436148,793.937385 173.234666,789.777625 C208.023585,793.669777 243.888658,795.884052 280.356993,796.352958 L280.356993,796.420452 C282.370633,796.420452 284.386643,796.420452 286.401468,796.352958 C288.415108,796.352958 290.431118,796.352958 292.444758,796.420452 L292.444758,796.352958 C328.846723,795.884052 364.71061,793.669777 399.299232,789.710131 C399.096564,793.803581 398.627229,797.024345 397.55226,799.306115 Z M377.806974,819.972292 C376.464152,822.521669 375.455554,825.071046 374.852292,827.689102 C373.240432,832.31895 371.830054,838.090276 370.68753,844.731919 C369.478635,851.978639 368.538778,860.298158 367.799219,869.08895 C366.994474,878.416142 366.523953,888.414721 366.254915,898.47961 C365.987061,908.141903 365.919505,917.669209 366.053432,926.458817 L362.494303,926.727609 C359.605992,926.928906 356.986719,927.130204 354.502558,927.264008 C351.009799,927.465306 347.650967,927.666604 344.360876,927.801591 C340.734191,928.002889 337.175062,928.136693 333.749859,928.271681 C329.720209,928.405485 325.892041,928.539289 322.1978,928.674277 C318.16815,928.740586 314.138499,928.87439 310.310331,928.941884 C306.079199,929.009378 301.981992,929.075688 298.019898,929.143182 C293.856321,929.210676 289.759115,929.210676 285.795835,929.210676 C281.833741,929.210676 277.73772,929.143182 273.572958,929.143182 C269.610864,929.075688 265.513657,929.075688 261.282525,928.941884 C257.386801,928.87439 253.424707,928.740586 249.395056,928.674277 C245.700815,928.539289 241.806277,928.405485 237.844182,928.271681 C234.417794,928.136693 230.858665,928.002889 227.23198,927.801591 C223.941889,927.666604 220.584242,927.465306 217.090298,927.264008 C214.606137,927.130204 211.919309,926.928906 209.166109,926.727609 L205.605795,926.458817 C205.673351,920.35239 205.740907,913.912045 205.605795,907.268034 C215.143029,908.074409 225.621305,908.744612 236.366249,909.214702 C256.043979,910.086203 276.595196,910.489982 294.259286,910.489982 L294.259286,904.786151 C276.393713,904.786151 255.910053,904.451049 236.567731,903.578364 C225.687675,903.109459 215.076658,902.436887 205.404312,901.565386 C205.404312,900.558897 205.337941,899.484915 205.337941,898.47961 C205.20283,893.782267 205.002532,889.01743 204.80105,884.387581 C214.538581,885.260266 225.28471,885.931653 236.298693,886.400559 C255.977608,887.273244 276.528825,887.67584 294.19173,887.67584 L294.19173,881.972008 C276.327342,881.972008 255.843682,881.636906 236.500175,880.697911 C225.28471,880.160328 214.337099,879.48894 204.3969,878.617439 C204.195417,875.330365 203.993935,872.175911 203.726081,869.02264 C203.524599,866.405769 203.25556,863.855208 202.986522,861.373324 C213.19576,862.312319 224.545151,862.983707 236.232322,863.520106 C255.910053,864.391607 276.461269,864.794203 294.124174,864.794203 L294.124174,859.091555 C276.259787,859.091555 255.776126,858.756453 236.433805,857.817458 C224.411224,857.279875 212.725239,856.542178 202.315704,855.535689 C201.845183,851.709847 201.308291,848.020177 200.703844,844.598115 C200.300879,842.316345 199.897914,840.16838 199.494949,838.156586 C210.576487,839.229385 223.135959,840.034576 236.232322,840.639653 C255.910053,841.511154 276.461269,841.91375 294.124174,841.91375 L294.124174,836.211102 C276.259787,836.211102 255.776126,835.874816 236.433805,835.002131 C222.732994,834.398238 209.501518,833.526737 198.017015,832.31895 C197.547679,830.642258 197.077158,829.030692 196.539082,827.554114 C195.935819,824.937242 194.928407,822.387865 193.651956,819.838488 C192.77847,818.228106 191.771057,816.684034 190.763645,815.141145 L194.054921,815.477431 C199.158354,815.946336 204.464456,816.416426 209.972039,816.751527 C220.718168,817.489225 232.672008,818.026808 244.962441,818.429404 C258.596881,818.899493 272.497989,819.099607 285.460426,819.167101 L285.527982,819.167101 C298.422863,819.099607 312.391527,818.899493 326.025968,818.429404 C338.248845,818.026808 350.27024,817.489225 361.016369,816.751527 C366.659065,816.416426 372.165463,815.946336 377.270082,815.409937 L380.761656,815.073651 C379.687872,816.751527 378.68046,818.2956 377.806974,819.972292 Z M311.048706,986.042959 L310.444258,986.513049 C307.354464,989.12992 304.333412,991.814285 285.729465,992.484488 C267.125517,991.814285 264.10328,989.12992 261.014671,986.513049 L260.476595,986.042959 L245.432962,972.958604 C247.783196,973.026098 250.268542,973.159901 252.955371,973.22858 C257.723395,973.362383 262.961941,973.496187 268.535895,973.496187 C274.043479,973.563681 279.818916,973.563681 285.661909,973.563681 C291.572458,973.563681 297.347895,973.496187 302.787923,973.496187 C308.363062,973.428693 313.669163,973.362383 318.369632,973.22858 C321.056461,973.159901 323.541807,973.026098 325.824485,972.958604 L311.048706,986.042959 Z M405.276152,780.335575 C405.277337,780.333207 402.895102,782.753517 401.073463,784.751101 L399.634641,784.878985 C363.031194,789.039928 324.950999,791.320513 286.401468,791.656799 C250.242468,791.405769 214.570581,789.365557 180.125368,785.640364 L179.818403,785.677071 C179.818403,785.677071 178.796768,785.550372 177.136315,785.344338 C175.318232,783.17861 172.722663,780.333207 172.725034,780.335575 C170.748135,778.797423 166.912856,770.532373 164.036396,761.883674 C176.477349,765.665704 198.244572,768.514659 229.026359,770.376072 C258.166657,772.136835 285.123832,772.353526 285.418945,772.355894 L292.608315,772.355894 C292.877353,772.353526 319.834528,772.136835 348.974826,770.376072 C379.756613,768.514659 401.523836,765.665704 413.964789,761.883674 C411.08833,770.532373 407.253051,778.797423 405.276152,780.335575 Z M94.7038929,94.6170606 C146.602233,42.765121 215.605253,14.209255 289.000593,14.209255 C362.395932,14.209255 431.398952,42.765121 483.298478,94.6170606 C535.196818,146.467816 563.777705,215.407569 563.777705,288.735613 C563.777705,347.340501 545.536426,403.266945 511.027212,450.471274 C445.891471,462.475726 344.748434,464.303983 289.319409,464.303983 C233.672309,464.303983 131.978158,462.460332 66.8756021,450.333917 C32.4303885,403.158007 14.2222951,347.284848 14.2222951,288.735613 C14.2222951,215.407569 42.8043676,146.467816 94.7038929,94.6170606 Z M61.0717205,455.373467 L60.994683,455.759485 L60.8666824,455.333207 C60.9342383,455.346232 61.0029794,455.360441 61.0717205,455.373467 Z M578,288.735613 C578,211.61133 547.939994,139.10387 493.354825,84.5687491 C438.769657,30.0348127 366.195655,0 289.000593,0 C211.80553,0 139.231529,30.0348127 84.6463598,84.5687491 C30.0623763,139.10387 0,211.61133 0,288.735613 C0,347.812959 17.6368312,404.297116 51.0615951,452.607398 C48.8002502,457.812722 50.7273712,463.787714 51.395819,465.539004 L51.4965603,465.78885 C52.697159,468.608203 81.0066375,535.044759 91.3557276,553.339175 C115.110516,595.327523 127.155615,634.090371 127.155615,668.552551 L127.155615,713.666935 C127.155615,714.971818 127.419912,744.992422 149.575878,763.360252 C153.924345,777.800407 158.749258,787.176147 163.970026,791.398664 C164.287657,796.62175 165.069883,800.821769 167.056264,804.338559 C168.332715,806.686639 171.287397,808.565813 176.793795,811.920381 C177.197945,812.389286 177.599725,812.86056 178.003875,813.329465 L178.003875,813.396959 C178.608323,814.067162 179.010103,814.604746 179.414253,815.006157 C181.22641,817.221617 182.905827,819.63719 184.182277,822.052764 C185.324802,824.199545 186.197103,826.347511 186.666438,828.426799 L186.733994,828.69559 L186.80155,828.896888 C188.345854,833.191635 189.689861,838.760479 190.8312,845.336996 C192.106466,852.583716 193.047508,860.836925 193.785882,869.625349 C194.524256,879.288827 195.062333,889.353716 195.331372,899.283617 C195.599225,910.287501 195.666781,921.226259 195.465298,930.954862 L195.397742,934.376924 L195.868263,934.444418 L222.463955,963.162507 L222.262473,963.162507 L231.26163,971.011936 L254.566046,991.344196 L254.633602,991.411689 L255.238049,991.880595 C259.469182,995.571449 263.767871,999.194809 285.729465,1000 L286.066059,1000 C308.094024,999.194809 312.325157,995.571449 316.556289,991.880595 L317.160737,991.411689 L317.227108,991.344196 L340.532709,971.011936 L349.531866,963.162507 L349.397939,963.162507 L376.665635,934.376924 L376.32904,934.376924 L376.26267,930.954862 C376.061187,921.226259 376.061187,910.354995 376.396596,899.283617 C376.598079,889.420026 377.13497,879.288827 377.9409,869.625349 C378.68046,860.836925 379.687872,852.582532 380.896767,845.336996 C381.970551,838.827973 383.314558,833.191635 384.926418,828.896888 L384.992788,828.69559 L385.060344,828.426799 C385.530865,826.347511 386.404351,824.199545 387.478134,822.052764 C388.822141,819.63719 390.500372,817.221617 392.313715,815.006157 C392.71668,814.537252 393.186016,814.000853 393.791648,813.329465 C394.396096,812.591768 395.000543,811.920381 395.537435,811.182684 C401.312872,808.498319 404.470222,806.820442 405.813043,804.338559 C407.456904,801.34159 408.259278,797.847298 408.683576,793.650831 L408.998837,793.85805 C416.177541,792.592242 422.7115,782.334344 428.425307,763.360252 C450.581273,744.992422 450.844385,714.971818 450.844385,713.666935 L450.844385,668.552551 C450.844385,634.090371 462.889484,595.327523 486.645458,553.339175 C496.994548,535.044759 525.304026,468.608203 526.504625,465.78885 L526.605366,465.539004 C527.273814,463.787714 529.200935,457.813906 526.93959,452.607398 C560.364354,404.297116 578,347.811775 578,288.735613 Z" id="Fill-22"></path>
        </g>
    </g>
</svg>