<?xml version="1.0" encoding="utf-8"?>
<!-- Generator: Adobe Illustrator 19.2.1, SVG Export Plug-In . SVG Version: 6.00 Build 0)  -->
<svg version="1.1" id="Layer_1" xmlns="http://www.w3.org/2000/svg" xmlns:xlink="http://www.w3.org/1999/xlink" x="0px" y="0px"
	 viewBox="0 0 33.7 33.7" style="enable-background:new 0 0 33.7 33.7;" xml:space="preserve">
<style type="text/css">
	.st0{fill:none;}
</style>
<g>
	<circle class="st0" cx="16.8" cy="5.5" r="0.6"/>
	<circle class="st0" cx="10.7" cy="5.5" r="0.6"/>
	<circle class="st0" cx="16.8" cy="16.9" r="5.2"/>
	<circle class="st0" cx="23" cy="5.5" r="0.6"/>
	<path class="st0" d="M8.2,0.8c-0.3,0-7.4,0.1-7.4,7.4v17.3c0,0.3,0.1,7.4,7.4,7.4h17.3c0.3,0,7.4-0.1,7.4-7.4V8.2
		c0-0.3-0.1-7.4-7.4-7.4H8.2z M16.8,4.1c0.8,0,1.4,0.6,1.4,1.4s-0.6,1.4-1.4,1.4s-1.4-0.6-1.4-1.4S16.1,4.1,16.8,4.1z M9.2,5.5
		c0-0.8,0.6-1.4,1.4-1.4c0.8,0,1.4,0.6,1.4,1.4s-0.6,1.4-1.4,1.4C9.9,6.9,9.2,6.3,9.2,5.5z M16.8,22.9c-3.3,0-6-2.7-6-6s2.7-6,6-6
		s6,2.7,6,6C22.9,20.2,20.2,22.9,16.8,22.9z M23,6.9c-0.8,0-1.4-0.6-1.4-1.4s0.6-1.4,1.4-1.4s1.4,0.6,1.4,1.4S23.8,6.9,23,6.9z"/>
	<path d="M8.2,0C8.1,0,0,0.1,0,8.2v17.3c0,0.1,0.1,8.2,8.2,8.2h17.3c0.1,0,8.2-0.1,8.2-8.2V8.2c0-0.1-0.1-8.2-8.2-8.2H8.2z
		 M32.9,8.2v17.3c0,7.3-7.1,7.4-7.4,7.4H8.2c-7.3,0-7.4-7.1-7.4-7.4V8.2c0-7.3,7.1-7.4,7.4-7.4h17.3C32.8,0.8,32.9,7.9,32.9,8.2z"/>
	<path d="M16.8,10.8c-3.3,0-6,2.7-6,6s2.7,6,6,6s6-2.7,6-6C22.9,13.5,20.2,10.8,16.8,10.8z M16.8,22.1c-2.9,0-5.2-2.3-5.2-5.2
		s2.3-5.2,5.2-5.2S22,14,22,16.9C22.1,19.7,19.7,22.1,16.8,22.1z"/>
	<path d="M16.8,6.9c0.8,0,1.4-0.6,1.4-1.4s-0.6-1.4-1.4-1.4s-1.4,0.6-1.4,1.4S16.1,6.9,16.8,6.9z M16.8,4.9c0.3,0,0.6,0.3,0.6,0.6
		c0,0.3-0.3,0.6-0.6,0.6c-0.3,0-0.6-0.3-0.6-0.6C16.2,5.1,16.5,4.9,16.8,4.9z"/>
	<path d="M12.1,5.5c0-0.8-0.6-1.4-1.4-1.4c-0.8,0-1.4,0.6-1.4,1.4s0.6,1.4,1.4,1.4C11.4,6.9,12.1,6.3,12.1,5.5z M10.7,6.1
		c-0.3,0-0.6-0.3-0.6-0.6c0-0.3,0.3-0.6,0.6-0.6s0.6,0.3,0.6,0.6C11.3,5.8,11,6.1,10.7,6.1z"/>
	<path d="M23,4.1c-0.8,0-1.4,0.6-1.4,1.4s0.6,1.4,1.4,1.4s1.4-0.6,1.4-1.4S23.8,4.1,23,4.1z M23,6.1c-0.3,0-0.6-0.3-0.6-0.6
		c0-0.3,0.3-0.6,0.6-0.6c0.3,0,0.6,0.3,0.6,0.6S23.4,6.1,23,6.1z"/>
</g>
</svg>