<svg id="Layer_1" data-name="Layer 1" xmlns="http://www.w3.org/2000/svg" viewBox="0 0 1417.32 1417.32"><title>1Artboard 21</title><path d="M1046.89,370.95a479.66,479.66,0,0,0-819,331.64q9.92-10.37,26.66-20.08c25-14.51,60.75-27.51,106.12-38.64,92.74-22.73,216-35.26,347-35.26s254.25,12.52,347,35.26C1100,655,1135.66,668,1160.7,682.51q16.73,9.7,26.66,20.08a478.17,478.17,0,0,0-140.47-331.64Z"/><path d="M1210.57,19.06H206.74c-103.94,0-188.2,84.26-188.2,188.2V1211.09c0,103.94,84.26,188.2,188.2,188.2H1210.57c103.94,0,188.2-84.26,188.2-188.2V207.26C1398.77,103.32,1314.51,19.06,1210.57,19.06ZM1206.86,734c-6,128.45-60.61,248.28-153.75,337.41a499.83,499.83,0,0,1-691,0c-93.13-89.12-147.74-209-153.75-337.42-.37-7.75-.56-15.74-.56-23.75a499.82,499.82,0,1,1,999.65,0C1207.43,718.24,1207.24,726.23,1206.86,734Z"/></svg>