<?xml version="1.0" encoding="utf-8"?>
<!-- Generator: Adobe Illustrator 19.2.1, SVG Export Plug-In . SVG Version: 6.00 Build 0)  -->
<svg version="1.1" id="Layer_1" xmlns="http://www.w3.org/2000/svg" xmlns:xlink="http://www.w3.org/1999/xlink" x="0px" y="0px"
	 viewBox="0 0 37.8 37.8" style="enable-background:new 0 0 37.8 37.8;" xml:space="preserve">
<style type="text/css">
	.st0{fill:none;}
</style>
<g>
	<circle class="st0" cx="18.9" cy="18.9" r="4.2"/>
	<circle class="st0" cx="18.9" cy="9" r="0.6"/>
	<circle class="st0" cx="9" cy="18.9" r="0.6"/>
	<circle class="st0" cx="12.5" cy="12.5" r="0.6"/>
	<path class="st0" d="M0.8,18.9c0,10,8.1,18.1,18.1,18.1S37,28.9,37,18.9S28.9,0.8,18.9,0.8S0.8,8.9,0.8,18.9z M9,20.3
		c-0.8,0-1.4-0.6-1.4-1.4s0.6-1.4,1.4-1.4c0.8,0,1.4,0.6,1.4,1.4C10.5,19.7,9.8,20.3,9,20.3z M12.5,13.9c-0.8,0-1.4-0.6-1.4-1.4
		s0.6-1.4,1.4-1.4c0.8,0,1.4,0.6,1.4,1.4C14,13.3,13.3,13.9,12.5,13.9z M23.9,18.9c0,2.8-2.2,5-5,5s-5-2.2-5-5s2.2-5,5-5
		C21.7,13.9,23.9,16.1,23.9,18.9z M20.3,9c0,0.8-0.6,1.4-1.4,1.4S17.5,9.8,17.5,9s0.6-1.4,1.4-1.4C19.7,7.6,20.3,8.2,20.3,9z"/>
	<path d="M0,18.9c0,10.4,8.5,18.9,18.9,18.9s18.9-8.5,18.9-18.9S29.3,0,18.9,0C8.5,0,0,8.5,0,18.9z M37,18.9
		c0,10-8.1,18.1-18.1,18.1S0.8,28.9,0.8,18.9S8.9,0.8,18.9,0.8S37,8.9,37,18.9z"/>
	<path d="M13.9,18.9c0,2.8,2.2,5,5,5s5-2.2,5-5s-2.2-5-5-5C16.1,13.9,13.9,16.1,13.9,18.9z M23.1,18.9c0,2.3-1.9,4.2-4.2,4.2
		s-4.2-1.9-4.2-4.2s1.9-4.2,4.2-4.2C21.2,14.7,23.1,16.5,23.1,18.9z"/>
	<path d="M9,17.4c-0.8,0-1.4,0.6-1.4,1.4s0.6,1.4,1.4,1.4c0.8,0,1.4-0.6,1.4-1.4C10.5,18.1,9.8,17.4,9,17.4z M9,19.5
		c-0.3,0-0.6-0.3-0.6-0.6c0-0.3,0.3-0.6,0.6-0.6s0.6,0.3,0.6,0.6C9.7,19.2,9.4,19.5,9,19.5z"/>
	<path d="M17.5,9c0,0.8,0.6,1.4,1.4,1.4s1.4-0.6,1.4-1.4s-0.6-1.4-1.4-1.4C18.1,7.6,17.5,8.2,17.5,9z M19.5,9c0,0.3-0.3,0.6-0.6,0.6
		c-0.3,0-0.6-0.3-0.6-0.6c0-0.3,0.3-0.6,0.6-0.6C19.3,8.4,19.5,8.7,19.5,9z"/>
	<path d="M12.5,11.1c-0.8,0-1.4,0.6-1.4,1.4s0.6,1.4,1.4,1.4c0.8,0,1.4-0.6,1.4-1.4C14,11.7,13.3,11.1,12.5,11.1z M12.5,13.1
		c-0.3,0-0.6-0.3-0.6-0.6c0-0.3,0.3-0.6,0.6-0.6s0.6,0.3,0.6,0.6C13.2,12.9,12.9,13.1,12.5,13.1z"/>
</g>
</svg>
