<?xml version="1.0" encoding="utf-8"?>
<!-- Generator: Adobe Illustrator 23.0.1, SVG Export Plug-In . SVG Version: 6.00 Build 0)  -->
<svg version="1.1" id="Layer_1" xmlns="http://www.w3.org/2000/svg" xmlns:xlink="http://www.w3.org/1999/xlink" x="0px" y="0px"
	 viewBox="0 0 425.1 425.6" style="enable-background:new 0 0 425.1 425.6;" xml:space="preserve">
<style type="text/css">
	.st0{fill:none;stroke:#000000;stroke-width:3;stroke-miterlimit:10;}
	.st1{fill:none;stroke:#000000;stroke-width:6;stroke-miterlimit:10;}
	.st2{fill:#464646;stroke:#000000;stroke-width:2;stroke-miterlimit:10;}
	.st3{fill:#CFCFCF;stroke:#000000;stroke-width:2;stroke-miterlimit:10;}
	.st4{fill:#FFFFFF;}
</style>
<g>
	<path class="st0" d="M10,412.2c0,2.2,1.8,4,4,4h398.8c2.2,0,4-1.8,4-4V13.4c0-2.2-1.8-4-4-4H14c-2.2,0-4,1.8-4,4V412.2z"/>
</g>
<g>
	<path class="st1" d="M61.6,365.3c0,2.2,1.8,4,4,4h295.6c2.2,0,4-1.8,4-4V69.7c0-2.2-1.8-4-4-4H65.6c-2.2,0-4,1.8-4,4V365.3z"/>
</g>
<line class="st1" x1="213.4" y1="65.7" x2="213.4" y2="369.3"/>
<line class="st2" x1="82.2" y1="217.5" x2="194.8" y2="217.5"/>
<line class="st3" x1="232.5" y1="217.5" x2="345.1" y2="217.5"/>
<g>
	<path d="M169.3,19.7c0.4,0,0.8,0.1,1.1,0.1c3.1,0.3,6,1.2,8.6,2.9c0.5,0.3,0.9,0.3,1.3,0.3c1.5-0.1,3-0.1,4.5-0.1
		c0.9,0,1.8-0.1,2.7-0.2c0.1,0,0.2-0.1,0.3-0.2c0.1-0.2,0.2-0.5,0.4-0.7c0.4-0.8,1.2-1.1,2.1-0.8c0.6,0.2,0.8,0.7,0.6,1.2
		c-0.1,0.2-0.1,0.3-0.2,0.5c0.3,0,0.6,0,0.9,0c2.8,0,5.7-0.1,8.5-0.1c0.6,0,1.3,0.1,2,0.2c0.7,0.2,1.5,0.4,2.1,0.8
		c1.9,1.1,1.6,3.1,0.8,4.3c0,0.1-0.1,0.1-0.2,0.2c-0.1-0.1-0.1-0.1-0.1-0.1c0-0.6-0.3-0.9-0.8-1.2c-0.6-0.3-1.3-0.5-2-0.5
		c-1.8-0.2-3.6-0.1-5.4,0c-1.4,0.1-2.9,0.1-4.3,0.2c-1,0-2,0.1-2.9,0.1c-0.2,0-0.3,0.1-0.4,0.2c-0.7,1.6-1.4,3.1-2,4.7
		c0,0.1,0,0.3,0,0.4c0.4,1.8,0.4,3.7,0.2,5.5c-0.3,2.2-0.9,4.3-1.6,6.4c-0.1,0.2,0,0.3,0.1,0.4c1.2,1.2,2.3,2.3,3.6,3.4
		c1.1,0.9,2.4,1.7,3.8,2.1c0.5,0.1,1.1,0.1,1.7,0.2c0.2,0,0.3-0.1,0.3-0.3c0.3-1.6,0.8-3.1,1.4-4.6c0.5-1,1.1-1.9,1.8-2.7
		c0.9-1.1,2-2.1,3.2-2.8c0.5-0.2,1-0.4,1.5-0.6c1.4-0.3,2.7,0.7,3,2c0.3,1.1,0.1,2.1-0.3,3.1c-0.5,1.2-1.2,2.3-2,3.3
		c-1.6,1.9-3.5,3.3-5.8,4.3c-0.1,0-0.1,0.1-0.2,0.1c0,0,0,0,0,0.1c0,0.1,0.1,0.1,0.1,0.2c1.2,1.5,2.5,2,4.2,1.5c1-0.3,2-0.8,2.9-1.5
		c0.7-0.4,1.3-0.9,2-1.4c0.1-0.1,0.2-0.2,0.2-0.3c-0.1-1.6,0.4-3.2,1-4.7c0.5-1.3,1.1-2.6,1.8-3.9c1-2.1,2.2-4,3.4-5.9
		c1.4-2.3,3.1-4.5,4.9-6.6c1.4-1.6,2.8-3,4.6-4.1c0.7-0.4,1.5-0.8,2.3-0.8c1.2-0.1,2.2,0.8,2.2,2.1c0.1,0.8-0.1,1.6-0.4,2.4
		c-0.3,1-0.9,1.9-1.5,2.8c-0.7,1.1-1.4,2.2-2.2,3.2c-1.6,2.2-3.2,4.3-4.8,6.5c-1.6,2.2-3.5,4.3-5.4,6.2c-0.9,0.9-1.7,1.7-2.6,2.6
		c-0.1,0.1-0.2,0.2-0.1,0.4c0,0.1,0.1,0.3,0.1,0.4c0.4,1,1.2,1.4,2.2,1.1c0.6-0.2,1.1-0.5,1.6-0.8c1.4-1.1,2.7-2.1,4.1-3.2
		c0.1-0.1,0.2-0.2,0.2-0.3c0.4-1.7,1.1-3.4,1.8-5c1-2.4,2.5-4.5,3.9-6.7c1-1.5,2.1-3,3.3-4.4c0.7-0.8,1.5-1.5,2.4-2
		c0.3-0.1,0.5-0.3,0.8-0.4c1.1-0.4,2.7,0.5,2.8,1.8c0,0.7-0.1,1.4-0.3,2c-0.3,0.7-0.7,1.5-1.1,2.2c-1.1,1.9-2.5,3.5-4,5.1
		c-2.3,2.5-4.6,4.9-6.9,7.3c-0.2,0.3-0.4,0.6-0.4,0.9c0,1.9,1.1,3.2,3,3.4c1.5,0.2,2.9-0.3,4.2-0.9c0.4-0.2,0.6-0.5,0.6-1
		c-0.1-2,0.7-3.7,1.8-5.2c0.9-1.2,2-2.3,3.4-2.9c0.4-0.2,0.8-0.3,1.2-0.4c1-0.2,2.1,0.7,2.3,1.7c0.1,0.8-0.1,1.6-0.4,2.3
		c-0.3,0.7-0.8,1.4-1.4,2c-0.9,0.9-1.8,1.7-2.6,2.6c-0.1,0.1-0.2,0.1-0.3,0.3c0.4,0,0.8,0.1,1.1,0.1c2,0,4,0,6-0.1
		c1.5,0,2.9-0.1,4.3-0.1c1.7-0.1,3.5-0.1,5.2-0.1c2.6,0.1,5,0.6,7.4,1.6c0.3,0.1,0.4,0.1,0.6-0.2c1-1.2,2-2.3,3-3.5
		c1.5-1.6,2.9-3.1,4.4-4.7c0.5-0.5,1-0.9,1.5-1.3c0.1-0.1,0.2-0.1,0.3-0.2c0.6-0.4,1-0.3,1.5,0.2c0.4,0.4,0.3,0.9-0.2,1.4
		c-0.8,0.8-1.6,1.6-2.4,2.5c-2,2.1-4,4.1-5.9,6.1c-0.2,0.2-0.5,0.4-0.8,0.7c0.1,0,0.1,0.1,0.2,0.1c1.5,1.4,1.1,3.1-0.2,4.2
		c-0.7,0.6-1.5,0.8-2.4,0.7c-0.7-0.1-1.2-0.7-1.3-1.5c0-0.4,0-0.8,0.1-1.2c-1.5-0.8-3.2-1-4.9-1.2c-3.4-0.4-6.8-0.3-10.2-0.3
		c-0.9,0-1.9,0-2.8,0.1c-1,0-2.1,0.1-3.1,0.1c-1.1-0.1-2.1-0.2-3.2-0.4c-0.5-0.1-1-0.4-1.4-0.7c-0.1-0.1-0.2-0.1-0.3-0.1
		c-0.7,0.4-1.5,0.7-2.2,1.1c-1.8,0.8-3.7,1.1-5.6,0.5c-1.8-0.5-2.9-1.8-3.2-3.7c0-0.1,0-0.2,0-0.3c-0.1,0.1-0.2,0.1-0.2,0.2
		c-1.4,1.2-2.8,2.3-4.4,3.2c-0.8,0.5-1.7,0.8-2.7,0.7c-0.6-0.1-1.2-0.2-1.7-0.7c-0.5-0.5-1-0.9-1.6-1.4c-0.6,0.5-1.2,1-1.8,1.5
		c-0.5,0.4-1,0.8-1.6,1.1c-1.2,0.8-2.5,1.4-3.9,1.7c-1.1,0.2-2.1,0.1-3.2-0.3c-1.4-0.6-2.2-1.8-2.5-3.2c0-0.1,0-0.1,0-0.2
		c0,0,0-0.1,0-0.1c-0.4,0-0.8,0-1.1,0c-1.4,0-2.6-0.4-3.9-1c-2-1-3.7-2.4-5.3-3.9c-0.2-0.2-0.4-0.4-0.6-0.7
		c-0.1,0.3-0.2,0.5-0.3,0.7c-1,2.1-2,4-3.4,5.9c-0.7,0.9-1.4,1.7-2.4,2.3c-0.7,0.5-1.5,0.8-2.4,0.6c-1-0.2-1.9-0.9-1.8-2.2
		c0-0.3,0.1-0.5,0.2-0.8c0.8-1.9,1.7-3.7,2.5-5.6c0.9-2,1.8-4.1,2.8-6.1c0.1-0.2,0.1-0.4-0.1-0.6c-0.4-0.6-0.9-1.1-1.3-1.7
		c-0.2-0.4-0.4-0.8-0.5-1.2c-0.2-0.6,0.2-1.3,0.8-1.5c0.3-0.1,0.6-0.1,0.8,0.1c0.5,0.4,0.9,0.8,1.3,1.2c0.1,0.1,0.2,0.2,0.4,0.4
		c0.5-1.1,1-2.1,1.5-3.2c0.5-1.2,1-2.3,1.5-3.5c0,0,0-0.1,0.1-0.1c0.4-0.8,0.4-0.8-0.1-1.5c-0.8-1.3-1.8-2.4-3-3.4
		c-0.1-0.1-0.3-0.1-0.4-0.1c-3.2,0-6.5,0-9.7,0.1c-2.7,0-5.4,0-8.1,0c-0.8,0-1.6-0.1-2.3-0.2c-1-0.2-1.4-0.7-1.5-1.8
		c0-0.5,0-1,0-1.5c0.1-0.8,0.6-1.3,1.2-1.7c0.9-0.6,1.9-1,3-1.1c1.5-0.2,3-0.4,4.5-0.5c0.1,0,0.3,0,0.4-0.1
		C168.3,19.7,168.8,19.7,169.3,19.7z M210.1,47.6c0,0,0.1,0,0.1,0.1c0.1-0.1,0.2-0.3,0.3-0.4c1.5-1.2,2.8-2.6,4-4.1
		c0.5-0.7,1.1-1.4,1.6-2.2c1.8-2.4,3.5-4.7,5.1-7.3c0.2-0.3,0.4-0.7,0.6-1.1c0.5-0.8,1-1.7,1.1-2.7c0.1-0.3,0.1-0.6-0.1-0.9
		c-0.4-0.5-1.2-0.7-1.7-0.2c-0.7,0.6-1.3,1.1-1.9,1.8c-1.6,1.8-2.9,3.7-4.2,5.7c-1.2,1.8-2.2,3.5-3.1,5.5c-0.6,1.3-1.1,2.7-1.5,4.1
		C210.4,46.5,210.3,47.1,210.1,47.6z M221.6,44.5C221.6,44.5,221.6,44.5,221.6,44.5c0.1,0,0.2-0.1,0.3-0.1c1.1-1.1,2.2-2.2,3.3-3.3
		c1.3-1.4,2.5-2.8,3.6-4.3c0.6-0.8,1.2-1.7,1.5-2.7c0.1-0.3,0.2-0.7,0.1-1c-0.1-0.5-0.5-0.7-1-0.5c-0.3,0.2-0.6,0.4-0.8,0.6
		c-0.6,0.7-1.2,1.4-1.7,2.2c-1.6,2.4-3.2,4.7-4.5,7.3C222.1,43.3,221.9,43.9,221.6,44.5z M197.3,49c0.1,0,0.1,0,0.2,0
		c1-0.4,1.9-0.9,2.5-1.6c0.7-0.8,1.5-1.6,2.2-2.5c0.5-0.6,1-1.3,1.2-2.1c0.3-0.9-0.2-1.3-1.1-1.2c0,0,0,0-0.1,0
		c-0.7,0.2-1.3,0.6-1.8,1.2c-1.1,1.2-1.8,2.6-2.4,4C197.8,47.6,197.6,48.3,197.3,49z M177.3,53C177.3,53,177.3,53.1,177.3,53
		c0.2-0.1,0.4-0.2,0.5-0.3c0.5-0.5,1-1,1.5-1.6c1.4-1.6,2.4-3.5,3.2-5.5c0-0.1,0-0.2,0-0.3c-0.3-0.4-0.7-0.8-1-1.2
		c0,0-0.1-0.1-0.1-0.1C179.9,47,178.6,50,177.3,53z M161.9,22.9c4.3,0.3,8.6,0.3,12.9,0.2c-0.3-0.2-0.6-0.3-0.9-0.4
		c-1.5-0.5-3.1-0.8-4.7-0.9c-2.4-0.1-4.7,0.2-6.9,0.9C162.2,22.7,162.1,22.8,161.9,22.9z M231,48.8c0.1-0.1,0.2-0.1,0.2-0.2
		c0.9-0.7,1.7-1.5,2.5-2.4c0.2-0.2,0.3-0.4,0.5-0.6c0.1-0.2,0.2-0.4,0.3-0.6c0.1-0.5-0.2-0.8-0.7-0.7c-0.2,0.1-0.4,0.2-0.6,0.3
		c-1,0.7-1.7,1.6-2.1,2.8C230.9,47.8,230.8,48.3,231,48.8z M185.1,35.4c0,0.1-0.1,0.2-0.1,0.2c-0.7,1.6-1.4,3.1-2.1,4.7
		c-0.2,0.4-0.3,0.7,0.1,1c0,0,0,0,0,0.1c0.3,0.3,0.5,0.6,0.9,1C184.6,40.1,185.2,37.8,185.1,35.4z M186,26.6c-0.7,0-1.4,0-2.1,0
		c0.5,0.6,0.9,1.1,1.4,1.7C185.5,27.7,185.8,27.2,186,26.6z"/>
	<path class="st4" d="M210.1,47.6c0.1-0.5,0.2-1.1,0.3-1.6c0.4-1.4,0.9-2.8,1.5-4.1c0.9-1.9,1.9-3.7,3.1-5.5c1.3-2,2.6-3.9,4.2-5.7
		c0.6-0.6,1.2-1.2,1.9-1.8c0.5-0.4,1.3-0.3,1.7,0.2c0.2,0.3,0.2,0.6,0.1,0.9c-0.2,1-0.7,1.8-1.1,2.7c-0.2,0.4-0.4,0.7-0.6,1.1
		c-1.5,2.5-3.3,4.9-5.1,7.3c-0.5,0.7-1.1,1.4-1.6,2.2c-1.2,1.5-2.5,2.9-4,4.1c-0.1,0.1-0.2,0.2-0.3,0.4
		C210.2,47.7,210.2,47.6,210.1,47.6z"/>
	<path class="st4" d="M221.6,44.5c0.3-0.6,0.5-1.2,0.8-1.8c1.2-2.6,2.9-5,4.5-7.3c0.5-0.8,1.1-1.5,1.7-2.2c0.2-0.2,0.5-0.4,0.8-0.6
		c0.5-0.2,0.9-0.1,1,0.5c0,0.3,0,0.7-0.1,1c-0.3,1-0.9,1.9-1.5,2.7c-1.1,1.5-2.3,2.9-3.6,4.3c-1.1,1.1-2.2,2.2-3.3,3.3
		C221.8,44.4,221.7,44.5,221.6,44.5C221.6,44.5,221.6,44.5,221.6,44.5z"/>
	<path class="st4" d="M197.3,49c0.2-0.7,0.5-1.5,0.7-2.1c0.6-1.4,1.4-2.8,2.4-4c0.5-0.6,1-1,1.8-1.2c0,0,0,0,0.1,0
		c0.9-0.2,1.3,0.3,1.1,1.2c-0.2,0.8-0.7,1.4-1.2,2.1c-0.7,0.9-1.5,1.7-2.2,2.5c-0.7,0.8-1.6,1.2-2.5,1.6
		C197.5,49.1,197.4,49.1,197.3,49z"/>
	<path class="st4" d="M177.3,53c1.3-3,2.6-6,4-9c0.1,0.1,0.1,0.1,0.1,0.1c0.4,0.4,0.7,0.8,1,1.2c0.1,0.1,0.1,0.2,0,0.3
		c-0.8,2-1.8,3.9-3.2,5.5c-0.5,0.6-1,1.1-1.5,1.6C177.7,52.8,177.5,52.9,177.3,53C177.3,53.1,177.3,53,177.3,53z"/>
	<path class="st4" d="M161.9,22.9c0.1-0.1,0.3-0.2,0.4-0.2c2.2-0.7,4.6-1,6.9-0.9c1.6,0.1,3.1,0.4,4.7,0.9c0.3,0.1,0.6,0.3,0.9,0.4
		C170.6,23.2,166.3,23.2,161.9,22.9z"/>
	<path class="st4" d="M231,48.8c-0.2-0.5-0.1-1,0.1-1.5c0.4-1.1,1.1-2.1,2.1-2.8c0.2-0.1,0.4-0.2,0.6-0.3c0.5-0.1,0.8,0.2,0.7,0.7
		c-0.1,0.2-0.2,0.4-0.3,0.6c-0.1,0.2-0.3,0.4-0.5,0.6c-0.8,0.9-1.5,1.7-2.5,2.4C231.1,48.7,231.1,48.7,231,48.8z"/>
	<path class="st4" d="M185.1,35.4c0.2,2.4-0.5,4.7-1.2,7c-0.3-0.4-0.6-0.7-0.9-1c0,0,0,0,0-0.1c-0.4-0.3-0.2-0.6-0.1-1
		c0.7-1.6,1.4-3.1,2.1-4.7C185,35.6,185,35.5,185.1,35.4z"/>
	<path class="st4" d="M186,26.6c-0.2,0.6-0.5,1.1-0.8,1.7c-0.5-0.6-0.9-1.1-1.4-1.7C184.6,26.6,185.3,26.6,186,26.6z"/>
</g>
</svg>