<?xml version="1.0" encoding="UTF-8"?>
<svg width="566px" height="1000px" viewBox="0 0 566 1000" version="1.1" xmlns="http://www.w3.org/2000/svg" xmlns:xlink="http://www.w3.org/1999/xlink">
    <!-- Generator: Sketch 52.5 (67469) - http://www.bohemiancoding.com/sketch -->
    <title>Group 12</title>
    <desc>Created with Sketch.</desc>
    <g id="Philips-Hue" stroke="none" stroke-width="1" fill="none" fill-rule="evenodd">
        <g id="Artboard" transform="translate(-217.000000, 0.000000)" fill="#000000">
            <g id="Group-12" transform="translate(217.000000, 0.000000)">
                <path d="M424.058746,740.893064 C407.909389,745.65066 385.243718,748.665256 356.887972,750.383391 C336.275138,751.632367 321.967831,751.952229 287.909627,752.312386 C287.475508,752.316988 287.475508,752.316988 287.008484,752.321795 L282.654054,752.321795 L278.647279,752.321472 C234.839971,751.723221 195.911068,749.768174 169.953155,746.363332 C158.414186,744.855463 149.548874,743.079763 143.59272,740.999102 C145.96297,745.534343 148.582252,750.066371 151.36035,754.269855 C155.927916,761.180946 160.449951,766.459805 164.532682,769.372812 L163.4963,770.825815 C167.280657,771.205732 171.41073,771.788436 175.540804,772.314165 C181.382016,772.711165 187.914157,773.404183 194.745238,773.799203 C207.811499,774.49321 222.262586,775.28424 236.714663,775.978248 C253.34544,776.274266 269.975227,776.671266 285.516159,776.671266 C301.056101,776.671266 317.686877,776.374258 334.316664,775.978248 C348.867728,775.28424 363.318815,774.49321 376.286089,773.799203 C383.513118,773.503185 390.045258,772.711165 395.786494,772.018147 C400.380477,771.78049 404.594186,771.225887 408.478335,770.658673 L407.56117,769.372812 C411.412918,766.62461 415.113493,761.621704 418.414166,755.019822 C420.458914,750.929994 422.218202,746.504781 423.67705,742.074548 C423.809329,741.672845 423.936562,741.278785 424.058746,740.893064 Z M425.251529,733.264575 C425.652411,672.717436 431.452226,607.592376 441.550238,540.343097 C445.952669,511.444483 451.098404,482.659041 456.846902,454.193209 C463.497529,421.260145 470.59618,390.452817 477.86316,361.833265 C481.999578,345.542808 488.702248,320.84599 488.270825,322.629487 L488.320201,322.425368 L488.383866,322.225246 C489.088983,320.008814 489.954486,318.130272 490.949436,316.574041 C491.028454,316.380706 491.085283,316.240919 491.141739,316.100921 C492.533,312.650928 493.126932,309.499343 493.045759,302.488216 L490.410316,302.640216 C480.456161,305.088156 463.820234,306.407078 438.838607,307.289939 C407.592569,308.394186 375.506473,308.594602 282.999716,308.594602 L282.999716,305.129514 L282.999716,308.594602 C190.493081,308.594602 158.407157,308.394186 127.161318,307.289939 C103.103153,306.439708 86.7851509,305.185051 76.7211361,302.907038 L72.9455311,302.612334 C72.8355747,309.873682 73.4319261,312.741195 75.0711423,316.624221 C76.0545964,318.243273 76.8950729,320.035478 77.5988937,322.150297 L77.6351169,322.259139 L77.6671114,322.369298 C78.1775356,324.126729 78.7078264,325.97907 79.4543553,328.640693 C80.5854394,332.673381 81.8339639,337.227111 83.1907687,342.299327 C86.9156262,356.224162 90.8697745,371.849486 94.929958,388.975105 C106.279204,436.845569 116.469729,487.906801 124.457366,540.339571 C135.020283,609.39864 140.851088,672.566382 141.143859,732.70716 C142.428387,733.256326 143.897306,733.793761 145.718396,734.401137 C151.176265,736.323802 159.672563,738.030825 170.852508,739.491778 C196.480842,742.85339 235.183923,744.797096 278.69458,745.391619 L282.654054,745.391619 L286.971233,745.391819 C287.401686,745.387205 287.401686,745.387205 287.83637,745.382597 C321.77559,745.023699 336.012195,744.705417 356.468959,743.465898 C386.309171,741.657816 409.686633,738.389042 425.251529,733.264575 Z M422.890804,770.522933 C420.422063,773.850899 417.738806,776.637552 414.804569,778.794475 C414.602756,779.019573 414.372832,779.268028 414.099057,779.541349 C413.40615,780.234366 413.011192,780.928374 412.317295,781.324384 C410.239561,784.294459 408.357821,787.164542 406.577048,790.036605 C405.487203,792.609681 404.398348,795.084743 404.002401,797.659799 L403.607444,798.054819 C401.825681,803.104937 400.438875,809.935121 398.954073,817.559304 C397.46927,826.270536 396.381405,835.972782 395.29156,846.468039 C394.598652,858.051333 393.906735,870.326655 393.509797,881.910939 C393.11385,895.276279 393.11385,907.947611 393.509797,919.827912 L393.509797,923.788013 L393.906735,923.788013 L361.339078,958.142876 L361.736016,958.142876 L350.847465,967.548115 L323.031176,991.803731 L322.338269,992.199741 C317.28994,996.554862 312.242602,1000.91196 285.813119,1002 L285.416182,1002 C259.382646,1000.91196 254.335308,996.554862 249.28599,992.199741 L248.593082,991.803731 L220.777784,967.548115 L209.889233,958.142876 L210.28617,958.142876 L178.510408,923.788013 L178.115451,923.788013 L178.115451,919.827912 C178.510408,907.947611 178.510408,895.276279 178.115451,881.910939 C177.817501,870.326655 177.025606,858.051333 176.332698,846.468039 C175.243843,835.972782 174.155978,826.270536 172.671176,817.559304 C171.28437,809.935121 169.799568,803.104937 168.018795,798.054819 L167.621857,798.054819 L167.621857,797.659799 C167.324897,795.084743 166.237032,792.609681 164.752229,790.036605 C163.365424,787.06653 161.187714,784.194467 159.010003,781.324384 C158.615046,781.026386 157.921148,780.234366 157.525201,779.541349 L155.348481,777.364283 L154.866884,776.866191 C152.585853,774.90415 150.327032,772.551992 148.085398,769.852434 L146.63665,768.354064 L146.9057,768.397937 C145.077514,766.091771 143.26023,763.558336 141.451106,760.820987 C138.424519,756.241519 135.605683,751.363585 133.058371,746.488556 C132.167476,744.783567 131.372777,743.19808 130.683342,741.770633 C130.263846,740.902083 129.968645,740.270193 129.807061,739.913756 L129.277033,738.744572 L129.277033,737.460825 C129.277033,676.563128 123.472835,612.465948 112.715008,542.132583 C104.778832,490.037617 94.6506344,439.288689 83.372023,391.716157 C79.33871,374.703876 75.4122642,359.188022 71.7159232,345.369792 C70.3716716,340.344504 69.1357809,335.836853 68.0174204,331.849528 C67.2982907,329.285593 66.7847554,327.490606 66.2941733,325.800327 C65.8507712,324.491306 65.3539399,323.471557 64.7741944,322.55908 L64.5216104,322.161532 L64.3348262,321.729138 C61.4056299,314.94823 60.663867,310.10644 61.2631967,296.300686 L60.2912164,294.421522 L60.2072051,294.22594 C55.7580336,283.868087 50.7293187,274.525462 40.2064813,256.370721 C36.7986896,250.317368 36.2556207,249.351095 34.7981713,246.738182 C24.1757657,227.694354 17.4842648,214.331243 11.9511983,200.095781 C4.88339188,181.911744 0.887963962,164.617707 0.248721265,147.177944 L0.245599199,147.061698 C0.23696756,146.555914 0.227869961,146.029487 0.217374626,145.427442 C0.0259458679,134.446491 -0.012728819,131.564975 0.00324302061,126.906449 C-0.071395807,105.654711 2.10633128,92.9883346 9.07505758,81.1767853 C19.1242459,64.5675986 37.9873299,52.5394229 75.4450122,38.122659 C108.270291,25.7627064 142.684071,16.2850672 176.91828,10.0419413 C189.856476,7.70996728 202.88512,5.76717801 215.865232,4.22006006 C238.43646,1.51622421 260.327595,0.107151772 280.817981,0.0129217472 C281.038307,0.0120048505 281.243895,0.0105726693 281.609934,0.00761205164 L281.679674,0.00704682008 C282.329678,0.00177314941 282.619846,-1.13686838e-13 282.987738,-1.13686838e-13 L283.011495,-1.13686838e-13 C283.38038,-1.13686838e-13 283.67127,0.0017761298 284.320786,0.00704689844 L284.346095,0.00725225435 C284.753802,0.0105594185 284.952798,0.0119669054 285.184839,0.0129331255 C305.67204,0.107153725 327.564189,1.51627518 350.131504,4.21964343 C363.113225,5.76695416 376.141066,7.709661 389.094001,10.0441274 C423.315578,16.2851491 457.729306,25.7628433 490.594637,38.1380455 C528.012579,52.539287 546.875896,64.5674651 556.959027,81.2334597 C563.893892,92.9883346 566.071619,105.654711 565.996985,126.866357 C566.012351,131.614385 565.973331,134.498464 565.778229,145.645559 C565.765898,146.351444 565.761215,146.620954 565.75362,147.062503 L565.750512,147.177944 C565.111212,164.619268 561.115299,181.914777 554.046621,200.10027 C548.512859,214.336905 541.820477,227.701133 531.196789,246.746273 C529.74001,249.357848 529.187887,250.340185 525.755838,256.435341 C515.272471,274.523347 510.243129,283.867811 505.792861,294.226306 L505.708915,294.421699 L504.743388,296.288375 C505.297189,309.088272 504.58306,314.530901 502.157884,320.544753 C502.046194,320.821719 501.93322,321.097936 501.718219,321.62234 L501.467111,322.236257 L501.086792,322.779656 C500.629802,323.432603 500.148455,324.427544 499.703118,325.827397 L499.693692,325.824397 C498.735898,329.243787 493.017387,350.417121 489.376121,364.757524 C482.155125,393.195973 475.099957,423.814594 468.490205,456.545247 C462.778195,484.830396 457.665818,513.429233 453.29503,542.120047 C443.244563,609.052783 437.488849,673.833354 437.126066,733.896734 L437.126066,737.588561 L437.047053,738.622221 L436.932043,739.093646 C436.840247,739.46992 436.670322,740.120904 436.421398,741.008233 C436.014944,742.457099 435.527998,744.063983 434.959331,745.790911 C433.332448,750.731433 431.366299,755.676974 429.038383,760.333183 C427.571002,763.268183 426.015969,765.980447 424.361081,768.440384 L424.987608,768.354064 L422.890804,770.522933 Z M487.614972,296.178044 L493.515097,291.732403 L494.785445,288.769546 L495.210366,288.769546 C499.821115,278.149924 505.014685,268.532754 515.442308,250.541834 C518.828011,244.528052 519.377726,243.549999 520.823544,240.958075 C531.202096,222.352391 537.684298,209.407877 542.975398,195.795536 C549.584264,178.792994 553.284416,162.7914 553.877964,146.799717 C553.885011,146.390241 553.889826,146.113292 553.901629,145.437623 C554.095023,134.388108 554.133615,131.535702 554.118634,126.864718 C554.186414,107.565735 552.329261,96.7639207 546.762595,87.3274754 C538.435803,73.5650463 521.485703,62.7568295 486.369028,49.2411204 C454.216188,37.134366 420.49012,27.8460562 386.975334,21.7339199 C374.268823,19.4438785 361.474683,17.5360209 348.722382,16.016054 C326.593345,13.3651888 305.153764,11.9851976 285.132817,11.8931207 C284.882837,11.8920804 284.672738,11.8905944 284.24976,11.8871634 L284.224412,11.8869577 C283.607179,11.8819489 283.337425,11.8803018 283.011495,11.8803018 L282.987738,11.8803018 C282.66283,11.8803018 282.393705,11.8819464 281.776028,11.8869578 L281.705991,11.8875254 C281.325241,11.890605 281.107606,11.8921211 280.870002,11.8931093 C260.845872,11.9851957 239.407305,13.3651376 217.274354,16.0164707 C204.523678,17.5362428 191.728784,19.4441761 179.036993,21.7317254 C145.509493,27.845985 111.783392,37.1342355 79.6706721,49.2257142 C44.5142711,62.7569165 27.5643615,73.5651433 19.2714897,87.270801 C13.670962,96.7639207 11.8138085,107.565735 11.8815914,126.905772 C11.8660212,131.487826 11.9042619,134.337009 12.0939888,145.220334 C12.1041017,145.800442 12.1129234,146.310705 12.1212838,146.800103 C12.7148215,162.790159 16.4145051,178.790214 23.0224841,195.791208 C28.3129101,209.402405 34.7942521,222.345824 45.1715442,240.950212 C46.6180283,243.543467 47.1587303,244.505528 50.5199165,250.477053 C60.9860122,268.532967 66.180015,278.150109 70.789914,288.769546 L71.2183772,288.769546 L72.4835144,291.727144 L78.552056,296.213679 C80.3692085,296.599697 82.4535783,296.96378 84.8031313,297.304298 C94.4468969,298.701961 108.436199,299.69368 127.406004,300.364085 C158.533613,301.464154 190.596482,301.664426 282.999716,301.664426 L282.999716,305.129514 L282.999716,301.664426 C375.403074,301.664426 407.466114,301.464154 438.593922,300.364085 C457.563866,299.693679 471.553286,298.70196 481.197139,297.304298 C483.618886,296.953319 485.758906,296.577307 487.614972,296.178044 Z M315.904125,985.269565 L333.52477,969.72617 C330.950122,970.12119 328.080494,970.12119 324.812939,970.12119 C318.973706,970.51819 312.835533,970.51819 306.005442,970.51819 C299.571298,970.51819 292.64222,970.9142 285.813119,970.9142 C278.587081,970.9142 271.756,970.51819 265.223859,970.51819 C258.689739,970.51819 252.552555,970.51819 246.811319,970.12119 C243.544754,970.12119 240.674136,970.12119 237.804508,969.72617 L255.918107,985.269565 L256.612005,985.961593 C260.274518,989.229666 263.837054,992.496749 285.911116,993.189766 C307.985179,992.496749 311.549694,989.229666 315.212207,985.961593 L315.904125,985.269565 Z M398.856076,781.918399 L394.499666,782.314409 C388.659443,783.006437 382.126312,783.699454 375.296221,784.096454 C362.23095,784.789472 348.17482,785.4815 333.721754,785.8785 C317.488904,786.571517 300.859117,786.966537 285.318185,786.966537 C269.776263,786.966537 253.443437,786.571517 237.209597,785.8785 C222.361573,785.581492 208.206457,784.789472 195.240172,784.096454 C188.706052,783.699454 182.569858,783.006437 176.432675,782.611417 L172.473202,781.918399 C173.958004,783.699454 175.04587,785.8785 176.135714,787.659555 C177.620517,790.531618 178.708382,793.798701 179.40228,796.669774 C180.095188,798.451819 180.787105,800.233864 181.183053,802.41192 C194.943212,803.896957 210.879101,804.984995 227.113931,805.679003 C250.275858,806.76704 274.527631,807.16404 295.809799,807.16404 L295.809799,813.995214 C274.527631,813.995214 250.275858,813.599204 226.81598,812.510176 C211.276038,811.817159 196.031077,810.727141 183.064792,809.242103 C183.45975,811.717166 184.152658,814.292221 184.549595,817.162304 C185.241513,821.122405 185.934421,825.479506 186.331358,830.132624 C199.000682,831.220661 212.760841,832.012682 227.211927,832.705699 C250.375835,833.795717 274.627608,834.190737 295.909775,834.190737 L295.909775,841.022901 C274.627608,841.022901 250.375835,840.6259 226.915957,839.537863 C212.858838,838.745843 199.397619,838.052825 187.5192,836.962807 C187.5192,839.83487 187.81616,842.705943 188.211118,845.973026 C188.509068,849.636119 188.509068,853.59622 188.904025,857.556321 C200.782445,858.248348 213.848706,859.338366 227.211927,859.733386 C250.375835,860.823404 274.627608,861.516421 295.909775,861.516421 L295.909775,868.050587 C274.627608,868.050587 250.375835,867.653587 226.915957,866.565549 C213.848706,866.168549 200.882421,865.080512 189.300963,864.386504 C189.596933,869.831642 189.99387,875.276781 189.99387,881.018927 L189.99387,884.68202 C201.574339,885.772037 214.245643,886.564057 227.211927,887.257075 C250.375835,888.346103 274.627608,888.742113 295.909775,888.742113 L295.909775,895.572296 C274.627608,895.572296 250.375835,894.879279 226.915957,893.791241 C214.245643,893.394241 201.574339,892.702213 190.388828,891.612196 L190.388828,914.382774 L194.348301,914.779774 C197.614866,915.076782 200.882421,915.076782 203.752049,915.472792 C208.10846,915.472792 212.067933,915.769799 216.027406,916.164819 C220.381836,916.164819 224.737257,916.56182 228.69673,916.56182 C233.448098,916.857837 238.100478,916.857837 242.456889,917.254837 C247.10828,917.254837 251.860637,917.254837 256.512028,917.649857 L271.360052,917.649857 C276.012433,917.649857 281.159748,918.046857 285.813119,918.046857 C290.4655,918.046857 295.216868,917.649857 300.264206,917.649857 L315.11223,917.649857 C319.368664,917.254837 324.121021,917.254837 329.16836,917.254837 C333.52477,916.95783 338.276138,916.95783 342.928518,916.56182 C346.887992,916.56182 351.242422,916.164819 355.598832,916.164819 C359.558305,915.867812 363.517779,915.472792 367.477252,915.472792 C370.446856,915.174794 373.614435,915.174794 377.275958,914.779774 L381.235431,914.382774 C381.235431,903.889498 381.235431,892.702213 381.631378,881.118919 C381.928339,869.238617 382.325276,857.258323 383.413141,846.071039 C384.106049,835.577762 385.590851,825.875516 386.679706,817.162304 C388.065522,809.242103 389.947261,802.01492 391.729024,796.569781 C392.519929,793.699698 393.906735,790.431625 395.391537,787.561542 C396.479402,785.383487 397.568257,783.601442 398.856076,781.918399 Z" id="Combined-Shape"></path>
            </g>
        </g>
    </g>
</svg>